<svg width="149" height="50" viewBox="0 0 149 50" fill="none" xmlns="http://www.w3.org/2000/svg">
<path d="M50 25C50 38.8071 38.8071 50 25 50C11.1929 50 0 38.8071 0 25C0 11.1929 11.1929 0 25 0C38.8071 0 50 11.1929 50 25ZM4.70273 25C4.70273 36.2099 13.7901 45.2973 25 45.2973C36.2099 45.2973 45.2973 36.2099 45.2973 25C45.2973 13.7901 36.2099 4.70273 25 4.70273C13.7901 4.70273 4.70273 13.7901 4.70273 25Z" fill="#563373"/>
<path d="M19.851 30.375H15.0007L15.0008 11H35V14.7672H19.8511L19.851 30.375Z" fill="#563373"/>
<path d="M26.3473 41C24.7305 41 23.2236 40.7489 21.8263 40.2466C20.4491 39.725 19.2515 38.9908 18.2335 38.0442C17.2156 37.0976 16.4172 35.9868 15.8383 34.7117C15.2794 33.4367 15 32.036 15 30.5098C15 28.9837 15.2794 27.583 15.8383 26.308C16.4172 25.0329 17.2156 23.9221 18.2335 22.9755C19.2715 22.0289 20.479 21.3044 21.8563 20.8021C23.2335 20.2805 24.7405 20.0197 26.3772 20.0197C28.1936 20.0197 29.8303 20.3288 31.2874 20.947C32.7645 21.5459 34.002 22.4346 35 23.613L31.8862 26.3949C31.1677 25.6028 30.3693 25.0136 29.491 24.6272C28.6128 24.2215 27.6547 24.0187 26.6168 24.0187C25.6387 24.0187 24.7405 24.1732 23.9222 24.4824C23.1038 24.7915 22.3952 25.2358 21.7964 25.8154C21.1976 26.3949 20.7285 27.0807 20.3892 27.8728C20.0699 28.6649 19.9102 29.5439 19.9102 30.5098C19.9102 31.4758 20.0699 32.3548 20.3892 33.1469C20.7285 33.9389 21.1976 34.6248 21.7964 35.2043C22.3952 35.7839 23.1038 36.2282 23.9222 36.5373C24.7405 36.8464 25.6387 37.001 26.6168 37.001C27.6547 37.001 28.6128 36.8078 29.491 36.4214C30.3693 36.0157 31.1677 35.4072 31.8862 34.5958L35 37.3777C34.002 38.5562 32.7645 39.4545 31.2874 40.0727C29.8303 40.6909 28.1836 41 26.3473 41Z" fill="#563373"/>
<path d="M61.5009 16.3194H69.2902V19.3332H61.5009V16.3194ZM61.7791 34.3005H58.0235V9.01689H70.2871V12.0306H61.7791V34.3005Z" fill="#563373"/>
<path d="M78.3257 25.4302C76.9038 25.4302 75.6519 25.152 74.5701 24.5956C73.5037 24.0393 72.6768 23.282 72.0895 22.3237C71.5022 21.3501 71.2086 20.245 71.2086 19.0086C71.2086 17.7568 71.4945 16.6517 72.0664 15.6935C72.6537 14.7198 73.4496 13.9625 74.4542 13.4216C75.4588 12.8652 76.5947 12.587 77.862 12.587C79.083 12.587 80.1803 12.8498 81.154 13.3752C82.1431 13.8853 82.9236 14.6271 83.4954 15.6008C84.0673 16.559 84.3532 17.7104 84.3532 19.055C84.3532 19.1941 84.3454 19.3564 84.33 19.5418C84.3145 19.7118 84.2991 19.8741 84.2836 20.0287H74.1528V17.919H82.3826L80.9917 18.545C80.9917 17.8959 80.8603 17.3317 80.5976 16.8526C80.3348 16.3735 79.9716 16.0026 79.508 15.7399C79.0443 15.4617 78.5034 15.3226 77.8852 15.3226C77.267 15.3226 76.7183 15.4617 76.2392 15.7399C75.7756 16.0026 75.4124 16.3813 75.1497 16.8758C74.8869 17.3549 74.7555 17.9268 74.7555 18.5913V19.1477C74.7555 19.8277 74.9024 20.4305 75.196 20.956C75.5051 21.466 75.9301 21.8601 76.4711 22.1383C77.0275 22.401 77.6766 22.5324 78.4184 22.5324C79.083 22.5324 79.6625 22.4319 80.1571 22.231C80.6671 22.0301 81.1308 21.7287 81.5481 21.3269L83.4722 23.4133C82.9004 24.0624 82.1817 24.5647 81.3162 24.9202C80.4508 25.2602 79.4539 25.4302 78.3257 25.4302Z" fill="#563373"/>
<path d="M86.9053 25.2448V12.7725H90.3595V16.2962L89.8726 15.2762C90.2436 14.3953 90.8386 13.7307 91.6577 13.2825C92.4768 12.8188 93.4737 12.587 94.6483 12.587V15.9253C94.4937 15.9099 94.3546 15.9021 94.231 15.9021C94.1073 15.8867 93.976 15.879 93.8369 15.879C92.8477 15.879 92.0441 16.1649 91.4259 16.7367C90.8231 17.2931 90.5218 18.1663 90.5218 19.3564V25.2448H86.9053Z" fill="#563373"/>
<path d="M97.3934 25.2447V12.7725H100.848V16.2962L100.361 15.2762C100.732 14.3952 101.327 13.7307 102.146 13.2825C102.965 12.8188 103.962 12.587 105.136 12.587V15.9253C104.982 15.9098 104.843 15.9021 104.719 15.9021C104.596 15.8867 104.464 15.8789 104.325 15.8789C103.336 15.8789 102.532 16.1649 101.914 16.7367C101.311 17.2931 101.01 18.1663 101.01 19.3563V25.2447H97.3934Z" fill="#563373"/>
<path d="M112.814 25.4302C111.392 25.4302 110.14 25.152 109.058 24.5956C107.992 24.0393 107.165 23.282 106.578 22.3237C105.99 21.3501 105.697 20.245 105.697 19.0086C105.697 17.7568 105.983 16.6517 106.555 15.6935C107.142 14.7198 107.938 13.9625 108.942 13.4216C109.947 12.8652 111.083 12.587 112.35 12.587C113.571 12.587 114.669 12.8498 115.642 13.3752C116.631 13.8853 117.412 14.6271 117.984 15.6008C118.555 16.559 118.841 17.7104 118.841 19.055C118.841 19.1941 118.834 19.3564 118.818 19.5418C118.803 19.7118 118.787 19.8741 118.772 20.0287H108.641V17.919H116.871L115.48 18.545C115.48 17.8959 115.349 17.3317 115.086 16.8526C114.823 16.3735 114.46 16.0026 113.996 15.7399C113.533 15.4617 112.992 15.3226 112.373 15.3226C111.755 15.3226 111.207 15.4617 110.727 15.7399C110.264 16.0026 109.901 16.3813 109.638 16.8758C109.375 17.3549 109.244 17.9268 109.244 18.5913V19.1477C109.244 19.8277 109.391 20.4305 109.684 20.956C109.993 21.466 110.418 21.8601 110.959 22.1383C111.516 22.401 112.165 22.5324 112.907 22.5324C113.571 22.5324 114.151 22.4319 114.645 22.231C115.155 22.0301 115.619 21.7287 116.036 21.3269L117.96 23.4133C117.389 24.0624 116.67 24.5647 115.804 24.9202C114.939 25.2602 113.942 25.4302 112.814 25.4302Z" fill="#563373"/>
<path d="M121.249 25.2448V12.7725H124.866V25.2448H121.249ZM123.057 11.0338C122.393 11.0338 121.852 10.8406 121.435 10.4542C121.017 10.0678 120.809 9.58873 120.809 9.01689C120.809 8.44505 121.017 7.96594 121.435 7.57957C121.852 7.19319 122.393 7 123.057 7C123.722 7 124.263 7.18546 124.68 7.55639C125.097 7.91185 125.306 8.37551 125.306 8.94734C125.306 9.55009 125.097 10.0524 124.68 10.4542C124.278 10.8406 123.737 11.0338 123.057 11.0338Z" fill="#563373"/>
<path d="M128.222 25.2448V12.7725H131.676V16.2962L131.189 15.2762C131.56 14.3953 132.155 13.7307 132.974 13.2825C133.794 12.8188 134.79 12.587 135.965 12.587V15.9253C135.81 15.9099 135.671 15.9021 135.548 15.9021C135.424 15.8867 135.293 15.879 135.154 15.879C134.165 15.879 133.361 16.1649 132.743 16.7367C132.14 17.2931 131.839 18.1663 131.839 19.3564V25.2448H128.222Z" fill="#563373"/>
<path d="M144.951 25.2448V22.8106L144.719 22.2774V17.919C144.719 17.1463 144.479 16.5435 144 16.1108C143.537 15.678 142.818 15.4617 141.844 15.4617C141.18 15.4617 140.523 15.5699 139.874 15.7862C139.24 15.9871 138.699 16.2653 138.251 16.6208L136.953 14.0939C137.633 13.6148 138.452 13.2439 139.41 12.9811C140.368 12.7184 141.342 12.587 142.331 12.587C144.232 12.587 145.708 13.0352 146.759 13.9316C147.81 14.828 148.335 16.2267 148.335 18.1277V25.2448H144.951ZM141.149 25.4302C140.175 25.4302 139.34 25.2679 138.645 24.9434C137.95 24.6034 137.416 24.1474 137.045 23.5756C136.674 23.0038 136.489 22.3624 136.489 21.6514C136.489 20.9096 136.667 20.2605 137.022 19.7041C137.393 19.1477 137.973 18.715 138.761 18.4059C139.549 18.0813 140.577 17.919 141.844 17.919H145.159V20.0287H142.238C141.388 20.0287 140.801 20.1678 140.476 20.4459C140.167 20.7241 140.013 21.0719 140.013 21.4892C140.013 21.9528 140.191 22.3237 140.546 22.6019C140.917 22.8647 141.419 22.996 142.053 22.996C142.656 22.996 143.197 22.8569 143.676 22.5788C144.155 22.2851 144.502 21.8601 144.719 21.3037L145.275 22.9729C145.013 23.7765 144.533 24.387 143.838 24.8043C143.142 25.2216 142.246 25.4302 141.149 25.4302Z" fill="#563373"/>
<path d="M66.7862 41.9999C65.5344 41.9999 64.3675 41.799 63.2856 41.3972C62.2192 40.9799 61.2919 40.3926 60.5037 39.6353C59.7155 38.878 59.0973 37.9893 58.6491 36.9693C58.2164 35.9493 58 34.8288 58 33.6078C58 32.3869 58.2164 31.2664 58.6491 30.2463C59.0973 29.2263 59.7155 28.3376 60.5037 27.5803C61.3074 26.823 62.2424 26.2435 63.3088 25.8416C64.3752 25.4243 65.5421 25.2157 66.8094 25.2157C68.2158 25.2157 69.4831 25.463 70.6114 25.9575C71.755 26.4366 72.7133 27.1476 73.486 28.0903L71.075 30.3159C70.5186 29.6822 69.9004 29.2108 69.2204 28.9017C68.5404 28.5772 67.7985 28.4149 66.9949 28.4149C66.2376 28.4149 65.5421 28.5385 64.9084 28.7858C64.2748 29.0331 63.7261 29.3886 63.2625 29.8522C62.7988 30.3159 62.4356 30.8645 62.1729 31.4982C61.9256 32.1319 61.802 32.8351 61.802 33.6078C61.802 34.3806 61.9256 35.0838 62.1729 35.7174C62.4356 36.3511 62.7988 36.8998 63.2625 37.3634C63.7261 37.8271 64.2748 38.1825 64.9084 38.4298C65.5421 38.6771 66.2376 38.8007 66.9949 38.8007C67.7985 38.8007 68.5404 38.6462 69.2204 38.3371C69.9004 38.0125 70.5186 37.5257 71.075 36.8766L73.486 39.1021C72.7133 40.0449 71.755 40.7635 70.6114 41.2581C69.4831 41.7527 68.2081 41.9999 66.7862 41.9999Z" fill="#563373"/>
<path d="M79.9858 41.9072C78.6567 41.9072 77.4744 41.629 76.4389 41.0726C75.4189 40.5163 74.6075 39.759 74.0047 38.8007C73.4174 37.8271 73.1238 36.722 73.1238 35.4856C73.1238 34.2337 73.4174 33.1287 74.0047 32.1705C74.6075 31.1968 75.4189 30.4395 76.4389 29.8986C77.4744 29.3422 78.6567 29.064 79.9858 29.064C81.2995 29.064 82.4741 29.3422 83.5096 29.8986C84.5451 30.4395 85.3564 31.1891 85.9437 32.1473C86.531 33.1055 86.8247 34.2183 86.8247 35.4856C86.8247 36.722 86.531 37.8271 85.9437 38.8007C85.3564 39.759 84.5451 40.5163 83.5096 41.0726C82.4741 41.629 81.2995 41.9072 79.9858 41.9072ZM79.9858 38.9398C80.5886 38.9398 81.1295 38.8007 81.6086 38.5225C82.0877 38.2444 82.4664 37.8502 82.7446 37.3402C83.0228 36.8148 83.1618 36.1965 83.1618 35.4856C83.1618 34.7592 83.0228 34.141 82.7446 33.631C82.4664 33.121 82.0877 32.7269 81.6086 32.4487C81.1295 32.1705 80.5886 32.0314 79.9858 32.0314C79.3831 32.0314 78.8422 32.1705 78.3631 32.4487C77.8839 32.7269 77.4976 33.121 77.2039 33.631C76.9257 34.141 76.7866 34.7592 76.7866 35.4856C76.7866 36.1965 76.9257 36.8148 77.2039 37.3402C77.4976 37.8502 77.8839 38.2444 78.3631 38.5225C78.8422 38.8007 79.3831 38.9398 79.9858 38.9398Z" fill="#563373"/>
<path d="M93.6665 41.9072C92.4919 41.9072 91.4333 41.6445 90.4905 41.119C89.5477 40.5781 88.7982 39.8285 88.2418 38.8703C87.7009 37.9121 87.4304 36.7838 87.4304 35.4856C87.4304 34.1719 87.7009 33.036 88.2418 32.0778C88.7982 31.1195 89.5477 30.3777 90.4905 29.8522C91.4333 29.3268 92.4919 29.064 93.6665 29.064C94.7175 29.064 95.6371 29.2958 96.4253 29.7595C97.2135 30.2231 97.824 30.9264 98.2567 31.8691C98.6894 32.8119 98.9058 34.0174 98.9058 35.4856C98.9058 36.9384 98.6972 38.1439 98.2799 39.1021C97.8626 40.0449 97.2598 40.7481 96.4716 41.2117C95.6989 41.6754 94.7638 41.9072 93.6665 41.9072ZM94.2925 38.9398C94.8798 38.9398 95.413 38.8007 95.8921 38.5225C96.3712 38.2444 96.7498 37.8502 97.028 37.3402C97.3217 36.8148 97.4685 36.1965 97.4685 35.4856C97.4685 34.7592 97.3217 34.141 97.028 33.631C96.7498 33.121 96.3712 32.7269 95.8921 32.4487C95.413 32.1705 94.8798 32.0314 94.2925 32.0314C93.6897 32.0314 93.1488 32.1705 92.6697 32.4487C92.1906 32.7269 91.8042 33.121 91.5105 33.631C91.2324 34.141 91.0933 34.7592 91.0933 35.4856C91.0933 36.1965 91.2324 36.8148 91.5105 37.3402C91.8042 37.8502 92.1906 38.2444 92.6697 38.5225C93.1488 38.8007 93.6897 38.9398 94.2925 38.9398ZM97.5612 41.7217V39.1717L97.6308 35.4624L97.3989 31.7764V24.5202H101.015V41.7217H97.5612Z" fill="#563373"/>
<path d="M109.477 41.9072C108.055 41.9072 106.803 41.629 105.722 41.0726C104.655 40.5163 103.828 39.759 103.241 38.8007C102.654 37.8271 102.36 36.722 102.36 35.4856C102.36 34.2337 102.646 33.1287 103.218 32.1705C103.805 31.1968 104.601 30.4395 105.606 29.8986C106.61 29.3422 107.746 29.064 109.013 29.064C110.234 29.064 111.332 29.3268 112.305 29.8522C113.295 30.3622 114.075 31.1041 114.647 32.0778C115.219 33.036 115.505 34.1874 115.505 35.532C115.505 35.6711 115.497 35.8334 115.481 36.0188C115.466 36.1888 115.45 36.3511 115.435 36.5056H105.304V34.396H113.534L112.143 35.022C112.143 34.3728 112.012 33.8087 111.749 33.3296C111.486 32.8505 111.123 32.4796 110.659 32.2169C110.196 31.9387 109.655 31.7996 109.037 31.7996C108.418 31.7996 107.87 31.9387 107.391 32.2169C106.927 32.4796 106.564 32.8582 106.301 33.3528C106.038 33.8319 105.907 34.4038 105.907 35.0683V35.6247C105.907 36.3047 106.054 36.9075 106.347 37.433C106.657 37.943 107.082 38.3371 107.622 38.6153C108.179 38.878 108.828 39.0094 109.57 39.0094C110.234 39.0094 110.814 38.9089 111.309 38.708C111.819 38.5071 112.282 38.2057 112.699 37.8039L114.624 39.8903C114.052 40.5394 113.333 41.0417 112.468 41.3972C111.602 41.7372 110.605 41.9072 109.477 41.9072Z" fill="#563373"/>
</svg>
